<svg xmlns="http://www.w3.org/2000/svg" width="1200" height="675" viewBox="0 0 1200 675" role="img" aria-label="Tehkné Integrador WP"><rect width="1200" height="675" fill="#030711"/><circle cx="1030" cy="120" r="260" fill="#8b5cf6" opacity=".14"/><rect x="48" y="48" width="1104" height="580" rx="36" fill="#07111f" stroke="#28445f"/><text x="82" y="150" fill="#f8fafc" font-size="48" font-weight="900" font-family="Inter,Arial">Tehkné Integrador WP</text><text x="84" y="194" fill="#a6b0c3" font-size="21" font-family="Inter,Arial">Hub entre site, CRM, Flow, webhooks e automações</text><rect x="120" y="340" width="220" height="92" rx="22" fill="#111c2e" stroke="#38bdf8" stroke-width="2"/><text x="148" y="384" fill="#f8fafc" font-size="22" font-weight="800" font-family="Inter,Arial">Formulário</text><text x="148" y="414" fill="#38bdf8" font-size="14" font-family="Inter,Arial">lead_received</text><rect x="480" y="340" width="220" height="92" rx="22" fill="#111c2e" stroke="#8b5cf6" stroke-width="2"/><text x="508" y="384" fill="#f8fafc" font-size="22" font-weight="800" font-family="Inter,Arial">Tehkné Hub</text><text x="508" y="414" fill="#a78bfa" font-size="14" font-family="Inter,Arial">normalização</text><rect x="840" y="275" width="220" height="92" rx="22" fill="#111c2e" stroke="#34d399" stroke-width="2"/><text x="868" y="319" fill="#f8fafc" font-size="22" font-weight="800" font-family="Inter,Arial">CRM WP Lite</text><text x="868" y="349" fill="#34d399" font-size="14" font-family="Inter,Arial">lead entregue</text><rect x="840" y="445" width="220" height="92" rx="22" fill="#111c2e" stroke="#60a5fa" stroke-width="2"/><text x="868" y="489" fill="#f8fafc" font-size="22" font-weight="800" font-family="Inter,Arial">Flow WP Lite</text><text x="868" y="519" fill="#60a5fa" font-size="14" font-family="Inter,Arial">tarefa criada</text><path d="M340 386 H480" stroke="#38bdf8" stroke-width="5"/><path d="M700 386 L840 321" stroke="#34d399" stroke-width="5"/><path d="M700 386 L840 491" stroke="#60a5fa" stroke-width="5"/><rect x="84" y="610" width="1032" height="5" rx="2" fill="#8b5cf6"/></svg>