<svg xmlns="http://www.w3.org/2000/svg" width="1200" height="675" viewBox="0 0 1200 675" role="img" aria-label="Tehkné CRM WP Lite"><defs><radialGradient id="bg" cx="20%" cy="10%" r="90%"><stop offset="0%" stop-color="#173452"/><stop offset="45%" stop-color="#07101d"/><stop offset="100%" stop-color="#030711"/></radialGradient><linearGradient id="line" x1="0" x2="1"><stop stop-color="#38bdf8"/><stop offset=".55" stop-color="#8b5cf6"/><stop offset="1" stop-color="#d946ef"/></linearGradient></defs><rect width="1200" height="675" fill="url(#bg)"/><circle cx="1045" cy="95" r="250" fill="#34d399" opacity=".10"/><rect x="40" y="42" width="1120" height="590" rx="36" fill="#07111f" stroke="#28445f"/><rect x="40" y="42" width="1120" height="66" rx="36" fill="#111b2b" stroke="#28445f"/><circle cx="82" cy="75" r="8" fill="#ff5c76"/><circle cx="112" cy="75" r="8" fill="#ffc250"/><circle cx="142" cy="75" r="8" fill="#34d399"/><rect x="220" y="62" width="600" height="26" rx="13" fill="#050a14" stroke="#28445f"/><text x="245" y="80" fill="#94a3b8" font-size="13" font-family="Inter,Arial">tehkne.solutions/produtos</text><text x="72" y="165" fill="#f8fafc" font-size="44" font-weight="800" font-family="Inter,Arial">Tehkné CRM WP Lite</text><text x="74" y="205" fill="#a6b0c3" font-size="20" font-family="Inter,Arial">Leads, funil comercial e follow-ups rastreáveis</text><rect x="74" y="238" width="240" height="44" rx="22" fill="#0f172a" stroke="#34d399"/><text x="98" y="266" fill="#34d399" font-size="15" font-weight="700" font-family="Inter,Arial">produto Tehkné</text><g transform="translate(80,350)"><rect width="190" height="240" rx="18" fill="#0f172a" stroke="#28445f"/><text x="18" y="36" fill="#38bdf8" font-size="18" font-weight="700">Novo Lead</text><rect x="16" y="70" width="158" height="66" rx="12" fill="#17243a" stroke="#334762"/><text x="28" y="98" fill="#f8fafc" font-size="13">Clínica Aurora</text><text x="28" y="120" fill="#94a3b8" font-size="11">Origem: Site</text><rect x="16" y="152" width="158" height="66" rx="12" fill="#17243a" stroke="#334762"/><text x="28" y="180" fill="#f8fafc" font-size="13">Lead Landing</text><text x="28" y="202" fill="#94a3b8" font-size="11">Retorno hoje</text></g><g transform="translate(295,350)"><rect width="190" height="240" rx="18" fill="#0f172a" stroke="#28445f"/><text x="18" y="36" fill="#60a5fa" font-size="18" font-weight="700">Qualificação</text><rect x="16" y="70" width="158" height="66" rx="12" fill="#17243a" stroke="#334762"/><text x="28" y="98" fill="#f8fafc" font-size="13">Savol</text><text x="28" y="120" fill="#94a3b8" font-size="11">Interesse alto</text></g><g transform="translate(510,350)"><rect width="190" height="240" rx="18" fill="#0f172a" stroke="#28445f"/><text x="18" y="36" fill="#a78bfa" font-size="18" font-weight="700">Proposta</text><rect x="16" y="70" width="158" height="66" rx="12" fill="#17243a" stroke="#334762"/><text x="28" y="98" fill="#f8fafc" font-size="13">Site Premium</text><text x="28" y="120" fill="#a78bfa" font-size="11">Enviar proposta</text></g><g transform="translate(725,350)"><rect width="190" height="240" rx="18" fill="#0f172a" stroke="#28445f"/><text x="18" y="36" fill="#fbbf24" font-size="18" font-weight="700">Negociação</text><rect x="16" y="70" width="158" height="66" rx="12" fill="#17243a" stroke="#334762"/><text x="28" y="98" fill="#f8fafc" font-size="13">CRM + Flow</text><text x="28" y="120" fill="#fbbf24" font-size="11">Reunião marcada</text></g><g transform="translate(940,350)"><rect width="190" height="240" rx="18" fill="#0f172a" stroke="#28445f"/><text x="18" y="36" fill="#34d399" font-size="18" font-weight="700">Ganho</text><rect x="16" y="70" width="158" height="66" rx="12" fill="#17243a" stroke="#334762"/><text x="28" y="98" fill="#f8fafc" font-size="13">WP Hub</text><text x="28" y="120" fill="#34d399" font-size="11">Fechado</text></g><rect x="72" y="600" width="1056" height="4" rx="2" fill="url(#line)"/></svg>