<svg xmlns="http://www.w3.org/2000/svg" width="1200" height="675" viewBox="0 0 1200 675" role="img" aria-label="Tehkné Integrador WP"><defs><radialGradient id="bg" cx="20%" cy="10%" r="90%"><stop offset="0%" stop-color="#173452"/><stop offset="45%" stop-color="#07101d"/><stop offset="100%" stop-color="#030711"/></radialGradient><linearGradient id="line" x1="0" x2="1"><stop stop-color="#38bdf8"/><stop offset=".55" stop-color="#8b5cf6"/><stop offset="1" stop-color="#d946ef"/></linearGradient></defs><rect width="1200" height="675" fill="url(#bg)"/><circle cx="1045" cy="95" r="250" fill="#8b5cf6" opacity=".14"/><rect x="40" y="42" width="1120" height="590" rx="36" fill="#07111f" stroke="#28445f"/><rect x="40" y="42" width="1120" height="66" rx="36" fill="#111b2b" stroke="#28445f"/><circle cx="82" cy="75" r="8" fill="#ff5c76"/><circle cx="112" cy="75" r="8" fill="#ffc250"/><circle cx="142" cy="75" r="8" fill="#34d399"/><rect x="220" y="62" width="600" height="26" rx="13" fill="#050a14" stroke="#28445f"/><text x="245" y="80" fill="#94a3b8" font-size="13" font-family="Inter,Arial">tehkne.solutions/produtos</text><text x="72" y="165" fill="#f8fafc" font-size="44" font-weight="800" font-family="Inter,Arial">Tehkné Integrador WP</text><text x="74" y="205" fill="#a6b0c3" font-size="20" font-family="Inter,Arial">Hub entre site, CRM, Flow, webhooks e automações</text><rect x="74" y="238" width="240" height="44" rx="22" fill="#0f172a" stroke="#8b5cf6"/><text x="98" y="266" fill="#a78bfa" font-size="15" font-weight="700" font-family="Inter,Arial">produto Tehkné</text><g transform="translate(110,380)"><rect width="230" height="92" rx="22" fill="#111c2e" stroke="#38bdf8" stroke-width="2"/><text x="28" y="38" fill="#f8fafc" font-size="20" font-weight="700">Formulário Site</text><text x="28" y="65" fill="#38bdf8" font-size="13">lead_received</text></g><g transform="translate(455,380)"><rect width="230" height="92" rx="22" fill="#111c2e" stroke="#8b5cf6" stroke-width="2"/><text x="28" y="38" fill="#f8fafc" font-size="20" font-weight="700">Tehkné Hub</text><text x="28" y="65" fill="#a78bfa" font-size="13">normalização + logs</text></g><g transform="translate(800,300)"><rect width="230" height="92" rx="22" fill="#111c2e" stroke="#34d399" stroke-width="2"/><text x="28" y="38" fill="#f8fafc" font-size="20" font-weight="700">CRM WP Lite</text><text x="28" y="65" fill="#34d399" font-size="13">lead entregue</text></g><g transform="translate(800,470)"><rect width="230" height="92" rx="22" fill="#111c2e" stroke="#60a5fa" stroke-width="2"/><text x="28" y="38" fill="#f8fafc" font-size="20" font-weight="700">Flow WP Lite</text><text x="28" y="65" fill="#60a5fa" font-size="13">tarefa criada</text></g><path d="M340 426 H455" stroke="#38bdf8" stroke-width="5"/><path d="M685 426 L800 346" stroke="#34d399" stroke-width="5"/><path d="M685 426 L800 516" stroke="#60a5fa" stroke-width="5"/><rect x="110" y="585" width="920" height="70" rx="20" fill="#0f172a" stroke="#28445f"/><text x="140" y="625" fill="#38bdf8" font-size="14">lead_received</text><text x="330" y="625" fill="#94a3b8" font-size="14">Lead capturado, validado e entregue ao fluxo comercial</text><rect x="72" y="600" width="1056" height="4" rx="2" fill="url(#line)" opacity=".35"/></svg>