<svg xmlns="http://www.w3.org/2000/svg" width="1200" height="675" viewBox="0 0 1200 675" role="img" aria-label="Tehkné WP Business Hub"><defs><radialGradient id="bg" cx="20%" cy="10%" r="90%"><stop offset="0%" stop-color="#173452"/><stop offset="45%" stop-color="#07101d"/><stop offset="100%" stop-color="#030711"/></radialGradient><linearGradient id="line" x1="0" x2="1"><stop stop-color="#38bdf8"/><stop offset=".55" stop-color="#8b5cf6"/><stop offset="1" stop-color="#d946ef"/></linearGradient></defs><rect width="1200" height="675" fill="url(#bg)"/><circle cx="150" cy="110" r="230" fill="#38bdf8" opacity=".12"/><circle cx="1040" cy="130" r="260" fill="#8b5cf6" opacity=".16"/><text x="72" y="104" fill="#f8fafc" font-size="54" font-weight="900" font-family="Inter,Arial">Tehkné WP Business Hub</text><text x="76" y="146" fill="#a6b0c3" font-size="20" font-family="Inter,Arial">CRM, gestão e integrações para transformar WordPress em uma máquina de vendas.</text><circle cx="600" cy="355" r="155" fill="#101b2d" stroke="#38bdf8" stroke-width="2"/><circle cx="600" cy="355" r="250" fill="none" stroke="#8b5cf6" stroke-width="2" opacity=".45"/><text x="486" y="342" fill="#f8fafc" font-size="32" font-weight="800" font-family="Inter,Arial">WORDPRESS</text><text x="485" y="386" fill="#38bdf8" font-size="28" font-weight="700" font-family="Inter,Arial">Business Hub</text><rect x="80" y="230" width="330" height="118" rx="24" fill="#101b2d" stroke="#60a5fa" stroke-width="2"/><text x="112" y="280" fill="#f8fafc" font-size="25" font-weight="800" font-family="Inter,Arial">Flow WP Lite</text><text x="112" y="315" fill="#94a3b8" font-size="16" font-family="Inter,Arial">Projetos • Tarefas • Execução</text><rect x="790" y="230" width="330" height="118" rx="24" fill="#101b2d" stroke="#34d399" stroke-width="2"/><text x="822" y="280" fill="#f8fafc" font-size="25" font-weight="800" font-family="Inter,Arial">CRM WP Lite</text><text x="822" y="315" fill="#94a3b8" font-size="16" font-family="Inter,Arial">Leads • Funil • Follow-up</text><rect x="435" y="510" width="330" height="118" rx="24" fill="#101b2d" stroke="#8b5cf6" stroke-width="2"/><text x="467" y="560" fill="#f8fafc" font-size="25" font-weight="800" font-family="Inter,Arial">Integrador WP</text><text x="467" y="595" fill="#94a3b8" font-size="16" font-family="Inter,Arial">Formulários • API • Logs</text><path d="M410 290 L500 330" stroke="#60a5fa" stroke-width="4"/><path d="M790 290 L700 330" stroke="#34d399" stroke-width="4"/><path d="M600 510 L600 430" stroke="#8b5cf6" stroke-width="4"/><rect x="220" y="610" width="760" height="44" rx="22" fill="#0f172a" stroke="#28445f"/><text x="250" y="638" fill="#f8fafc" font-size="16" font-family="Inter,Arial">Captar lead → Registrar no CRM → Criar tarefa → Acompanhar entrega → Fechar venda</text><rect x="72" y="660" width="1056" height="4" rx="2" fill="url(#line)"/></svg>