<svg xmlns="http://www.w3.org/2000/svg" width="1200" height="675" viewBox="0 0 1200 675" role="img" aria-label="Tehkné Flow WP Lite">
  <defs>
    <radialGradient id="bg" cx="20%" cy="10%" r="90%"><stop offset="0%" stop-color="#173452"/><stop offset="45%" stop-color="#07101d"/><stop offset="100%" stop-color="#030711"/></radialGradient>
    <linearGradient id="line" x1="0" x2="1"><stop stop-color="#38bdf8"/><stop offset=".55" stop-color="#8b5cf6"/><stop offset="1" stop-color="#d946ef"/></linearGradient>
    <filter id="glow"><feGaussianBlur stdDeviation="8" result="b"/><feMerge><feMergeNode in="b"/><feMergeNode in="SourceGraphic"/></feMerge></filter>
  </defs>
  <rect width="1200" height="675" fill="url(#bg)"/>
  <circle cx="145" cy="95" r="210" fill="#38bdf8" opacity=".10"/><circle cx="1045" cy="95" r="250" fill="#8b5cf6" opacity=".12"/>
  <rect x="40" y="42" width="1120" height="590" rx="36" fill="#07111f" stroke="#28445f"/>
  <rect x="40" y="42" width="1120" height="66" rx="36" fill="#111b2b" stroke="#28445f"/>
  <circle cx="82" cy="75" r="8" fill="#ff5c76"/><circle cx="112" cy="75" r="8" fill="#ffc250"/><circle cx="142" cy="75" r="8" fill="#34d399"/>
  <rect x="220" y="62" width="600" height="26" rx="13" fill="#050a14" stroke="#28445f"/>
  <text x="245" y="80" fill="#94a3b8" font-size="13" font-family="Inter, Arial">tehkne.solutions/produtos</text>
  <text x="72" y="165" fill="#f8fafc" font-size="44" font-weight="800" font-family="Inter, Arial">Tehkné Flow WP Lite</text>
  <text x="74" y="205" fill="#a6b0c3" font-size="20" font-family="Inter, Arial">Gestão de projetos, tarefas e execução diária</text>
  <rect x="74" y="238" width="240" height="44" rx="22" fill="#0f172a" stroke="#60a5fa"/>
  <text x="98" y="266" fill="#60a5fa" font-size="15" font-weight="700" font-family="Inter, Arial">produto Tehkné</text>
  <g transform="translate(80,360)"><rect width="180" height="230" rx="18" fill="#0f172a" stroke="#28445f"/><text x="18" y="36" fill="#94a3b8" font-size="18" font-weight="700">Backlog</text><rect x="16" y="70" width="148" height="56" rx="12" fill="#17243a" stroke="#334762"/><text x="28" y="98" fill="#f8fafc" font-size="13">Landing UNTI</text><text x="28" y="116" fill="#60a5fa" font-size="11">Projeto ativo</text><rect x="16" y="148" width="148" height="56" rx="12" fill="#17243a" stroke="#334762"/><text x="28" y="176" fill="#f8fafc" font-size="13">Página Produtos</text><text x="28" y="194" fill="#60a5fa" font-size="11">Projeto ativo</text></g>
  <g transform="translate(290,360)"><rect width="180" height="230" rx="18" fill="#0f172a" stroke="#28445f"/><text x="18" y="36" fill="#60a5fa" font-size="18" font-weight="700">A Fazer</text><rect x="16" y="70" width="148" height="56" rx="12" fill="#17243a" stroke="#334762"/><text x="28" y="98" fill="#f8fafc" font-size="13">Briefing</text><text x="28" y="116" fill="#60a5fa" font-size="11">Prioridade alta</text><rect x="16" y="148" width="148" height="56" rx="12" fill="#17243a" stroke="#334762"/><text x="28" y="176" fill="#f8fafc" font-size="13">Wireframe</text><text x="28" y="194" fill="#60a5fa" font-size="11">Hoje</text></g>
  <g transform="translate(500,360)"><rect width="180" height="230" rx="18" fill="#0f172a" stroke="#28445f"/><text x="18" y="36" fill="#fbbf24" font-size="18" font-weight="700">Em Progresso</text><rect x="16" y="70" width="148" height="56" rx="12" fill="#17243a" stroke="#334762"/><text x="28" y="98" fill="#f8fafc" font-size="13">CRM Lead</text><text x="28" y="116" fill="#fbbf24" font-size="11">3h registradas</text><rect x="16" y="148" width="148" height="56" rx="12" fill="#17243a" stroke="#334762"/><text x="28" y="176" fill="#f8fafc" font-size="13">Flow API</text><text x="28" y="194" fill="#fbbf24" font-size="11">Em andamento</text></g>
  <g transform="translate(710,360)"><rect width="180" height="230" rx="18" fill="#0f172a" stroke="#28445f"/><text x="18" y="36" fill="#a78bfa" font-size="18" font-weight="700">Revisão</text><rect x="16" y="70" width="148" height="56" rx="12" fill="#17243a" stroke="#334762"/><text x="28" y="98" fill="#f8fafc" font-size="13">Integração</text><text x="28" y="116" fill="#a78bfa" font-size="11">Aguardando QA</text></g>
  <g transform="translate(920,360)"><rect width="180" height="230" rx="18" fill="#0f172a" stroke="#28445f"/><text x="18" y="36" fill="#34d399" font-size="18" font-weight="700">Concluída</text><rect x="16" y="70" width="148" height="56" rx="12" fill="#17243a" stroke="#334762"/><text x="28" y="98" fill="#f8fafc" font-size="13">Setup WP</text><text x="28" y="116" fill="#34d399" font-size="11">Finalizado</text></g>
  <rect x="72" y="600" width="1056" height="4" rx="2" fill="url(#line)" filter="url(#glow)"/>
</svg>