<svg xmlns="http://www.w3.org/2000/svg" width="1200" height="675" viewBox="0 0 1200 675" role="img" aria-label="Tehkné Flow WP Lite"><rect width="1200" height="675" fill="#030711"/><circle cx="170" cy="130" r="260" fill="#38bdf8" opacity=".12"/><circle cx="1030" cy="120" r="260" fill="#8b5cf6" opacity=".12"/><rect x="48" y="48" width="1104" height="580" rx="36" fill="#07111f" stroke="#28445f"/><text x="82" y="150" fill="#f8fafc" font-size="48" font-weight="900" font-family="Inter,Arial">Tehkné Flow WP Lite</text><text x="84" y="194" fill="#a6b0c3" font-size="21" font-family="Inter,Arial">Gestão de projetos, tarefas e execução diária</text><g transform="translate(90,280)"><rect width="190" height="285" rx="20" fill="#0f172a" stroke="#28445f"/><text x="22" y="44" fill="#94a3b8" font-size="18" font-weight="700">Backlog</text><rect x="20" y="76" width="150" height="62" rx="14" fill="#17243a"/><rect x="20" y="158" width="150" height="62" rx="14" fill="#17243a"/></g><g transform="translate(305,280)"><rect width="190" height="285" rx="20" fill="#0f172a" stroke="#28445f"/><text x="22" y="44" fill="#60a5fa" font-size="18" font-weight="700">A Fazer</text><rect x="20" y="76" width="150" height="62" rx="14" fill="#17243a"/></g><g transform="translate(520,280)"><rect width="190" height="285" rx="20" fill="#0f172a" stroke="#28445f"/><text x="22" y="44" fill="#fbbf24" font-size="18" font-weight="700">Em Progresso</text><rect x="20" y="76" width="150" height="62" rx="14" fill="#17243a"/><rect x="20" y="158" width="150" height="62" rx="14" fill="#17243a"/></g><g transform="translate(735,280)"><rect width="190" height="285" rx="20" fill="#0f172a" stroke="#28445f"/><text x="22" y="44" fill="#a78bfa" font-size="18" font-weight="700">Revisão</text><rect x="20" y="76" width="150" height="62" rx="14" fill="#17243a"/></g><g transform="translate(950,280)"><rect width="190" height="285" rx="20" fill="#0f172a" stroke="#28445f"/><text x="22" y="44" fill="#34d399" font-size="18" font-weight="700">Concluída</text><rect x="20" y="76" width="150" height="62" rx="14" fill="#17243a"/></g><rect x="84" y="610" width="1032" height="5" rx="2" fill="#38bdf8"/></svg>